#36 vertices, 36 faces
v 0.64892578 -0.70019531 0.10000000
v 0.21728516 5.8593750e-3 0.10000000
v 0.63720703 0.70019531 0.10000000
v 0.28564453 0.70019531 0.10000000
v 6.2988281e-2 0.28417969 0.10000000
v 1.9042969e-2 0.16210938 0.10000000
v 1.5136719e-2 0.16210938 0.10000000
v -2.6855469e-2 0.28027344 0.10000000
v -0.22705078 0.70019531 0.10000000
v -0.61083984 0.70019531 0.10000000
v -0.20263672 0.0000000e+0 0.10000000
v -0.64892578 -0.70019531 0.10000000
v -0.27294922 -0.70019531 0.10000000
v -3.0761719e-2 -0.24804688 0.10000000
v 1.4648438e-3 -0.15039063 0.10000000
v 5.3710938e-3 -0.15039063 0.10000000
v 3.3691406e-2 -0.24414063 0.10000000
v 0.27490234 -0.70019531 0.10000000
v 0.64892578 -0.70019531 -0.10000000
v 0.21728516 5.8593750e-3 -0.10000000
v 0.63720703 0.70019531 -0.10000000
v 0.28564453 0.70019531 -0.10000000
v 6.2988281e-2 0.28417969 -0.10000000
v 1.9042969e-2 0.16210938 -0.10000000
v 1.5136719e-2 0.16210938 -0.10000000
v -2.6855469e-2 0.28027344 -0.10000000
v -0.22705078 0.70019531 -0.10000000
v -0.61083984 0.70019531 -0.10000000
v -0.20263672 0.0000000e+0 -0.10000000
v -0.64892578 -0.70019531 -0.10000000
v -0.27294922 -0.70019531 -0.10000000
v -3.0761719e-2 -0.24804688 -0.10000000
v 1.4648438e-3 -0.15039063 -0.10000000
v 5.3710938e-3 -0.15039063 -0.10000000
v 3.3691406e-2 -0.24414063 -0.10000000
v 0.27490234 -0.70019531 -0.10000000
vn 0.0000000e+0 0.0000000e+0 1.00000000
vn 0.87223655 -0.48908425 0.0000000e+0
vn 0.87223655 -0.48908425 0.0000000e+0
vn 0.0000000e+0 0.0000000e+0 1.00000000
vn 0.0000000e+0 0.0000000e+0 1.00000000
vn 0.0000000e+0 0.0000000e+0 1.00000000
vn 0.99999713 2.3944814e-3 0.0000000e+0
vn 0.99999713 2.3944814e-3 0.0000000e+0
vn 0.0000000e+0 0.0000000e+0 1.00000000
vn 0.0000000e+0 0.0000000e+0 1.00000000
vn 0.87106295 0.49117140 0.0000000e+0
vn 0.87106295 0.49117140 0.0000000e+0
vn 0.0000000e+0 0.0000000e+0 1.00000000
vn -0.51386925 0.85786852 0.0000000e+0
vn -0.51386925 0.85786852 0.0000000e+0
vn 0.0000000e+0 0.0000000e+0 1.00000000
vn 0.0000000e+0 0.0000000e+0 1.00000000
vn -0.91370487 0.40637840 0.0000000e+0
vn -0.91370487 0.40637840 0.0000000e+0
vn 0.0000000e+0 0.0000000e+0 1.00000000
vn 0.0000000e+0 0.0000000e+0 1.00000000
vn 0.0000000e+0 0.0000000e+0 1.00000000
vn -0.57501327 0.81814408 0.0000000e+0
vn -0.57501327 0.81814408 0.0000000e+0
vn 0.0000000e+0 0.0000000e+0 1.00000000
vn 0.0000000e+0 0.0000000e+0 1.00000000
vn 0.0000000e+0 0.0000000e+0 1.00000000
vn 0.57669054 0.81696268 0.0000000e+0
vn 0.57669054 0.81696268 0.0000000e+0
vn 0.0000000e+0 0.0000000e+0 1.00000000
vn 0.0000000e+0 0.0000000e+0 1.00000000
vn 0.92370249 0.38311057 0.0000000e+0
vn 0.92370249 0.38311057 0.0000000e+0
vn 0.0000000e+0 0.0000000e+0 1.00000000
vn 0.53369422 0.84567753 0.0000000e+0
vn 0.53369422 0.84567753 0.0000000e+0
vn 0.0000000e+0 0.0000000e+0 1.00000000
vn 0.0000000e+0 0.0000000e+0 1.00000000
vn -0.86707735 0.49817353 0.0000000e+0
vn -0.86707735 0.49817353 0.0000000e+0
vn 0.0000000e+0 0.0000000e+0 1.00000000
vn 0.0000000e+0 0.0000000e+0 1.00000000
vn 0.0000000e+0 0.0000000e+0 1.00000000
vn -0.99980362 1.9816998e-2 0.0000000e+0
vn -0.99980362 1.9816998e-2 0.0000000e+0
vn 0.0000000e+0 0.0000000e+0 1.00000000
vn -0.87677938 -0.48089283 0.0000000e+0
vn -0.87677938 -0.48089283 0.0000000e+0
vn 0.0000000e+0 0.0000000e+0 1.00000000
vn 0.51372727 -0.85795355 0.0000000e+0
vn 0.51372727 -0.85795355 0.0000000e+0
vn 0.0000000e+0 0.0000000e+0 1.00000000
vn 0.0000000e+0 0.0000000e+0 1.00000000
vn 0.91900449 -0.39424705 0.0000000e+0
vn 0.91900449 -0.39424705 0.0000000e+0
vn 0.0000000e+0 0.0000000e+0 1.00000000
vn 0.0000000e+0 0.0000000e+0 1.00000000
vn 0.58592770 -0.81036333 0.0000000e+0
vn 0.58592770 -0.81036333 0.0000000e+0
vn 0.0000000e+0 0.0000000e+0 1.00000000
vn 0.0000000e+0 0.0000000e+0 1.00000000
vn -0.59616398 -0.80286270 0.0000000e+0
vn -0.59616398 -0.80286270 0.0000000e+0
vn 0.0000000e+0 0.0000000e+0 1.00000000
vn 0.0000000e+0 0.0000000e+0 1.00000000
vn -0.92493327 -0.38012951 0.0000000e+0
vn -0.92493327 -0.38012951 0.0000000e+0
vn 0.0000000e+0 0.0000000e+0 1.00000000
vn -0.51597490 -0.85660370 0.0000000e+0
vn -0.51597490 -0.85660370 0.0000000e+0
vn 0.0000000e+0 0.0000000e+0 -1.00000000
vn 0.87223655 -0.48908425 0.0000000e+0
vn 0.87223655 -0.48908425 0.0000000e+0
vn 0.0000000e+0 0.0000000e+0 -1.00000000
vn 0.0000000e+0 0.0000000e+0 -1.00000000
vn 0.0000000e+0 0.0000000e+0 -1.00000000
vn 0.99999713 2.3944814e-3 0.0000000e+0
vn 0.99999713 2.3944814e-3 0.0000000e+0
vn 0.0000000e+0 0.0000000e+0 -1.00000000
vn 0.0000000e+0 0.0000000e+0 -1.00000000
vn 0.87106295 0.49117140 0.0000000e+0
vn 0.87106295 0.49117140 0.0000000e+0
vn 0.0000000e+0 0.0000000e+0 -1.00000000
vn -0.51386925 0.85786852 0.0000000e+0
vn -0.51386925 0.85786852 0.0000000e+0
vn 0.0000000e+0 0.0000000e+0 -1.00000000
vn 0.0000000e+0 0.0000000e+0 -1.00000000
vn -0.91370487 0.40637840 0.0000000e+0
vn -0.91370487 0.40637840 0.0000000e+0
vn 0.0000000e+0 0.0000000e+0 -1.00000000
vn 0.0000000e+0 0.0000000e+0 -1.00000000
vn 0.0000000e+0 0.0000000e+0 -1.00000000
vn -0.57501327 0.81814408 0.0000000e+0
vn -0.57501327 0.81814408 0.0000000e+0
vn 0.0000000e+0 0.0000000e+0 -1.00000000
vn 0.0000000e+0 0.0000000e+0 -1.00000000
vn 0.0000000e+0 0.0000000e+0 -1.00000000
vn 0.57669054 0.81696268 0.0000000e+0
vn 0.57669054 0.81696268 0.0000000e+0
vn 0.0000000e+0 0.0000000e+0 -1.00000000
vn 0.0000000e+0 0.0000000e+0 -1.00000000
vn 0.92370249 0.38311057 0.0000000e+0
vn 0.92370249 0.38311057 0.0000000e+0
vn 0.0000000e+0 0.0000000e+0 -1.00000000
vn 0.53369422 0.84567753 0.0000000e+0
vn 0.53369422 0.84567753 0.0000000e+0
vn 0.0000000e+0 0.0000000e+0 -1.00000000
vn 0.0000000e+0 0.0000000e+0 -1.00000000
vn -0.86707735 0.49817353 0.0000000e+0
vn -0.86707735 0.49817353 0.0000000e+0
vn 0.0000000e+0 0.0000000e+0 -1.00000000
vn 0.0000000e+0 0.0000000e+0 -1.00000000
vn 0.0000000e+0 0.0000000e+0 -1.00000000
vn -0.99980362 1.9816998e-2 0.0000000e+0
vn -0.99980362 1.9816998e-2 0.0000000e+0
vn 0.0000000e+0 0.0000000e+0 -1.00000000
vn -0.87677938 -0.48089283 0.0000000e+0
vn -0.87677938 -0.48089283 0.0000000e+0
vn 0.0000000e+0 0.0000000e+0 -1.00000000
vn 0.51372727 -0.85795355 0.0000000e+0
vn 0.51372727 -0.85795355 0.0000000e+0
vn 0.0000000e+0 0.0000000e+0 -1.00000000
vn 0.0000000e+0 0.0000000e+0 -1.00000000
vn 0.91900449 -0.39424705 0.0000000e+0
vn 0.91900449 -0.39424705 0.0000000e+0
vn 0.0000000e+0 0.0000000e+0 -1.00000000
vn 0.0000000e+0 0.0000000e+0 -1.00000000
vn 0.58592770 -0.81036333 0.0000000e+0
vn 0.58592770 -0.81036333 0.0000000e+0
vn 0.0000000e+0 0.0000000e+0 -1.00000000
vn 0.0000000e+0 0.0000000e+0 -1.00000000
vn -0.59616398 -0.80286270 0.0000000e+0
vn -0.59616398 -0.80286270 0.0000000e+0
vn 0.0000000e+0 0.0000000e+0 -1.00000000
vn 0.0000000e+0 0.0000000e+0 -1.00000000
vn -0.92493327 -0.38012951 0.0000000e+0
vn -0.92493327 -0.38012951 0.0000000e+0
vn 0.0000000e+0 0.0000000e+0 -1.00000000
vn -0.51597490 -0.85660370 0.0000000e+0
vn -0.51597490 -0.85660370 0.0000000e+0
g x

s 1
f 2//4 17//64 18//68 1//1
f 3//9 5//16 6//21 2//5
f 4//13 5//17 3//10
f 6//22 16//61 17//65 2//6
f 7//25 15//56 16//60 6//20
f 8//30 10//37 11//42 7//26
f 9//34 10//38 8//31
f 11//43 14//53 15//57 7//27
f 12//46 13//49 14//52 11//41
f 19//71 36//138 35//134 20//74
f 20//75 24//91 23//86 21//79
f 20//76 35//135 34//131 24//92
f 21//80 23//87 22//83
f 24//90 34//130 33//126 25//95
f 25//96 29//112 28//107 26//100
f 25//97 33//127 32//123 29//113
f 26//101 28//108 27//104
f 29//111 32//122 31//119 30//116
s 2
f 1//2 19//72 20//77 2//7
f 2//8 20//78 21//81 3//11
f 3//12 21//82 22//84 4//14
f 4//15 22//85 23//88 5//18
f 5//19 23//89 24//93 6//23
f 6//24 24//94 25//98 7//28
f 7//29 25//99 26//102 8//32
f 8//33 26//103 27//105 9//35
f 9//36 27//106 28//109 10//39
f 10//40 28//110 29//114 11//44
f 11//45 29//115 30//117 12//47
f 12//48 30//118 31//120 13//50
f 13//51 31//121 32//124 14//54
f 14//55 32//125 33//128 15//58
f 15//59 33//129 34//132 16//62
f 16//63 34//133 35//136 17//66
f 17//67 35//137 36//139 18//69
f 18//70 36//140 19//73 1//3
